<?xml version="1.0" standalone="no"?>
<!DOCTYPE svg PUBLIC "-//W3C//DTD SVG 1.1//EN" "http://www.w3.org/Graphics/SVG/1.1/DTD/svg11.dtd" >
<svg xmlns="http://www.w3.org/2000/svg" xmlns:xlink="http://www.w3.org/1999/xlink" version="1.1" viewBox="-10 0 407 1000">
   <path fill="currentColor"
d="M290 399q62 57 62 147q0 85 -42 141q-49 63 -134 63q-88 0 -133 -57q-43 -53 -43 -152v-47h35v47q0 86 35 130q36 44 106 44q33 0 60 -12.5t45 -37.5q17 -22 26 -52.5t9 -66.5q0 -43 -15 -72.5t-35.5 -48.5t-42 -29.5t-34.5 -15.5l-16 -7q-14 -6 -33.5 -16t-37.5 -27.5
t-30.5 -43t-12.5 -62.5q0 -26 6 -53t20 -49t36.5 -36t54.5 -14q58 0 87 36q30 38 30 116v47h-36v-47q0 -43 -8.5 -67t-21.5 -34.5t-27 -12.5t-24 -2q-29 0 -45 14t-24.5 33.5t-10.5 39t-2 29.5q0 26 8 44.5t21 32t29.5 23t34.5 16.5l16 7q14 6 38.5 17.5t48.5 34.5zM60 372
q-60 -58 -60 -148q0 -47 12.5 -86t36 -66.5t56 -43t71.5 -15.5q54 0 85.5 19t47.5 39q43 55 43 153v47h-36v-47q0 -88 -35 -130q-35 -45 -105 -45q-68 0 -106 52q-35 47 -35 123q0 43 14.5 73t35 49.5t42.5 30.5t36 17l17 8q13 5 32 14t37 25.5t31 42t13 62.5q0 69 -31 107
t-86 38q-59 0 -87 -35q-30 -37 -30 -115v-47h35v47q0 65 23 93q5 7 18 14.5t41 7.5q27 0 43 -11.5t24.5 -28t11 -36t2.5 -34.5q0 -26 -8 -44t-21 -30.5t-29 -21t-32 -15.5l-18 -8q-16 -7 -40.5 -19.5t-48.5 -35.5z" />
</svg>
